<svg xmlns="http://www.w3.org/2000/svg" width="102.097" height="64.006" viewBox="0 0 102.097 64.006"><path d="M41.123,33.981C46.759,31.287,49.7,27.21,49.7,20.864,49.7,8.35,40.378,5.3,29.619,5.3H0V68.12H30.452c11.415,0,22.139-5.477,22.139-18.239C52.591,41.993,48.851,36.161,41.123,33.981ZM13.808,16.025H26.765c4.981,0,9.465,1.4,9.465,7.179,0,5.335-3.492,7.48-8.419,7.48h-14V16.025ZM28.573,57.449H13.808v-17.3H28.857c6.08,0,9.926,2.535,9.926,8.969C38.783,55.464,34.192,57.449,28.573,57.449ZM92.118,14.785H66.647V8.6H92.118v6.186Zm9.979,31.25c0-13.453-7.87-24.674-22.139-24.674-13.861,0-23.273,10.422-23.273,24.071,0,14.162,8.916,23.876,23.273,23.876,10.866,0,17.9-4.892,21.288-15.3H90.222c-1.188,3.882-6.08,5.938-9.873,5.938-7.321,0-11.167-4.29-11.167-11.575h32.809C102.044,47.629,102.1,46.832,102.1,46.034ZM69.2,40.5c.408-5.973,4.378-9.713,10.369-9.713,6.275,0,9.43,3.687,9.962,9.713Z" transform="translate(0 -5.302)" fill="#edd8d8"/></svg>