<svg xmlns="http://www.w3.org/2000/svg" width="54.776" height="76.982" viewBox="0 0 54.776 76.982"><path d="M62.369,29.449c0-14.416-12.972-26.074-27.388-26.074S7.594,15.052,7.594,29.449c0,5.737,2.443,10.381,5.589,14.823h-.056c2.017,2.776,3.96,3.275,5.829,6.477,2.72,4.663,3.349,7.532,3.46,10.307a2.969,2.969,0,0,0,2.961,2.831h1.647a.742.742,0,0,0,.74-.74V45.66a5.986,5.986,0,0,0-.629-2.646l-3.886-7.772a1.943,1.943,0,0,1,1.74-2.813h0a1.927,1.927,0,0,1,1.74,1.092l4.682,9.512a5.812,5.812,0,0,1,.611,2.609V63.147a.742.742,0,0,0,.74.74H37.2a.742.742,0,0,0,.74-.74V45.641a5.812,5.812,0,0,1,.611-2.609l4.7-9.549a1.873,1.873,0,0,1,1.665-1.036h0a1.862,1.862,0,0,1,1.665,2.7l-3.942,7.883a6.046,6.046,0,0,0-.629,2.646V63.147a.742.742,0,0,0,.74.74H44.6a2.96,2.96,0,0,0,2.961-2.776,22.232,22.232,0,0,1,3.4-10.363c1.869-3.2,3.812-3.7,5.829-6.477h-.019C59.927,39.83,62.369,35.186,62.369,29.449Z" transform="translate(-7.594 -3.375)" fill="#d1ede4"/><path d="M18.341,35.838H25a2.6,2.6,0,0,0,2.591-2.591h0A2.6,2.6,0,0,0,25,30.656H18.341a2.6,2.6,0,0,0-2.591,2.591h0A2.6,2.6,0,0,0,18.341,35.838Z" transform="translate(5.716 41.144)" fill="#d1ede4"/><path d="M16.934,32.744H31a2.6,2.6,0,0,0,2.591-2.591h0A2.6,2.6,0,0,0,31,27.563H16.934a2.6,2.6,0,0,0-2.591,2.591h0A2.6,2.6,0,0,0,16.934,32.744Z" transform="translate(3.421 36.096)" fill="#d1ede4"/></svg>