<svg xmlns="http://www.w3.org/2000/svg" width="73.665" height="73.665" viewBox="0 0 73.665 73.665"><path d="M56.679,10.639A15.392,15.392,0,0,1,72.026,25.986V56.679A15.392,15.392,0,0,1,56.679,72.026H25.986A15.392,15.392,0,0,1,10.639,56.679V25.986A15.392,15.392,0,0,1,25.986,10.639H56.679m0-6.139H25.986A21.549,21.549,0,0,0,4.5,25.986V56.679A21.549,21.549,0,0,0,25.986,78.165H56.679A21.549,21.549,0,0,0,78.165,56.679V25.986A21.549,21.549,0,0,0,56.679,4.5Z" transform="translate(-4.5 -4.5)" fill="#edd8d8"/><path d="M28.229,18.208a4.6,4.6,0,1,1,4.6-4.6A4.593,4.593,0,0,1,28.229,18.208Z" transform="translate(28.554 3.277)" fill="#edd8d8"/><path d="M29.666,17.389A12.277,12.277,0,1,1,17.389,29.666,12.289,12.289,0,0,1,29.666,17.389m0-6.139A18.416,18.416,0,1,0,48.082,29.666,18.421,18.421,0,0,0,29.666,11.25Z" transform="translate(7.166 7.166)" fill="#edd8d8"/></svg>