<svg xmlns="http://www.w3.org/2000/svg" xmlns:xlink="http://www.w3.org/1999/xlink" width="72.558" height="90.038" viewBox="0 0 72.558 90.038"><defs><clipPath id="a"><path d="M1083.515,879.817V790.482l72.558-.351v90.038Z" transform="translate(-1083.515 -790.131)" fill="#d1ede4"/></clipPath></defs><g clip-path="url(#a)"><g transform="translate(0 0.176)"><path d="M1119.648,790.307a80.282,80.282,0,0,1-2.177,19.957,36.478,36.478,0,0,1-6.644,13.983,26.974,26.974,0,0,1-11.271,8.22,43.315,43.315,0,0,1-16.041,2.687,43.336,43.336,0,0,1,16.041,2.686,26.976,26.976,0,0,1,11.271,8.217,36.457,36.457,0,0,1,6.644,13.98,80.26,80.26,0,0,1,2.177,19.955,80.02,80.02,0,0,1,2.179-19.943,36.318,36.318,0,0,1,6.662-13.971,27.1,27.1,0,0,1,11.344-8.226,44.094,44.094,0,0,1,16.239-2.7,44.092,44.092,0,0,1-16.239-2.7,27.119,27.119,0,0,1-11.344-8.23,36.34,36.34,0,0,1-6.662-13.974,80.043,80.043,0,0,1-2.179-19.945" transform="translate(-1083.515 -790.307)" fill="#d1ede4"/></g></g></svg>