<svg xmlns="http://www.w3.org/2000/svg" width="77.537" height="67.798" viewBox="0 0 77.537 67.798"><g transform="translate(0 22.1)"><path d="M159.377,58.787V45.3H138.4V71.9a5.618,5.618,0,0,1-11.237,0V56.835a19.512,19.512,0,0,1-13.485,0V71.9a5.618,5.618,0,0,1-11.237,0V45.3H81.84V58.787h7.117V71.9a19.089,19.089,0,0,0,31.465,14.548A19.089,19.089,0,0,0,151.886,71.9V58.787Z" transform="translate(-81.84 -45.302)" fill="#fff"/></g><path d="M102.146,45.3c.094.255.191.5.3.749V45.3Z" transform="translate(-81.84 -23.202)"/><path d="M138.7,45.3h-.3v.749C138.506,45.8,138.6,45.557,138.7,45.3Z" transform="translate(-81.84 -23.202)"/><path d="M135.779,38.56a15.354,15.354,0,1,0-8.615,13.8A15.359,15.359,0,0,0,135.779,38.56Z" transform="translate(-81.84 -23.202)" fill="#fff"/><g transform="translate(34.817 9.288)"><path d="M126.342,45.006v.137h-2.519L120.4,40.359h-1.522v4.784h-2.226V32.49h4.178a6.289,6.289,0,0,1,2.626.488,3.6,3.6,0,0,1,1.6,1.347,3.689,3.689,0,0,1,.536,1.992,3.745,3.745,0,0,1-2.87,3.768Zm-7.459-6.4h1.679a3.213,3.213,0,0,0,2.031-.556,1.978,1.978,0,0,0,.7-1.65,1.89,1.89,0,0,0-.634-1.542,2.818,2.818,0,0,0-1.845-.528h-1.933Z" transform="translate(-116.657 -32.49)"/></g></svg>