<svg xmlns="http://www.w3.org/2000/svg" xmlns:xlink="http://www.w3.org/1999/xlink" width="42.911" height="53.249" viewBox="0 0 42.911 53.249"><defs><clipPath id="a"><path d="M1083.515,843.172V790.339l42.911-.208V843.38Z" transform="translate(-1083.515 -790.131)" fill="#d1ede4"/></clipPath></defs><g clip-path="url(#a)"><g transform="translate(0 0.104)"><path d="M1104.884,790.307a47.482,47.482,0,0,1-1.287,11.8,21.574,21.574,0,0,1-3.929,8.27,15.953,15.953,0,0,1-6.666,4.861,25.617,25.617,0,0,1-9.487,1.589,25.629,25.629,0,0,1,9.487,1.589,15.954,15.954,0,0,1,6.666,4.86,21.561,21.561,0,0,1,3.929,8.268,47.47,47.47,0,0,1,1.287,11.8,47.325,47.325,0,0,1,1.289-11.794,21.48,21.48,0,0,1,3.94-8.263,16.029,16.029,0,0,1,6.709-4.865,26.079,26.079,0,0,1,9.6-1.6,26.078,26.078,0,0,1-9.6-1.6,16.038,16.038,0,0,1-6.709-4.867,21.492,21.492,0,0,1-3.94-8.264,47.338,47.338,0,0,1-1.289-11.8" transform="translate(-1083.515 -790.307)" fill="#d1ede4"/></g></g></svg>