<svg xmlns="http://www.w3.org/2000/svg" width="427" height="427" viewBox="0 0 427 427"><g transform="translate(-3001 2018)"><g transform="translate(3001 -2018)" stroke="#707070" stroke-width="1"><rect width="427" height="427" rx="213.5" stroke="none"/><rect x="0.5" y="0.5" width="426" height="426" rx="213" fill="none"/></g><g transform="translate(3072.987 -1926.792)"><g transform="translate(0 80.628)"><path d="M364.721,94.5V45.3H288.193v97.027a20.5,20.5,0,0,1-41,0V87.378a71.185,71.185,0,0,1-49.2,0v54.951a20.5,20.5,0,0,1-41,0V45.3H81.84V94.5h25.965v47.83A69.644,69.644,0,0,0,222.6,195.405a69.642,69.642,0,0,0,114.791-53.076V94.5Z" transform="translate(-81.84 -45.302)" fill="#fff"/></g><path d="M102.146,45.3c.343.93.7,1.831,1.08,2.733V45.3Z" transform="translate(-28.063 35.326)"/><path d="M139.481,45.3H138.4v2.733C138.784,47.133,139.138,46.232,139.481,45.3Z" transform="translate(67.952 35.326)"/><path d="M217.123,79.233a56.017,56.017,0,1,0-31.43,50.343A56.035,56.035,0,0,0,217.123,79.233Z" transform="translate(-20.335 -23.202)" fill="#fff"/><g transform="translate(127.024 33.886)"><path d="M151.991,78.153v.5H142.8L130.331,61.2h-5.553V78.652h-8.121V32.49H131.9a22.943,22.943,0,0,1,9.581,1.78,13.127,13.127,0,0,1,5.845,4.914,13.457,13.457,0,0,1,1.956,7.267A13.664,13.664,0,0,1,138.81,60.2ZM124.778,54.785H130.9q4.843,0,7.41-2.028a7.218,7.218,0,0,0,2.561-6.02,6.9,6.9,0,0,0-2.313-5.626q-2.315-1.926-6.731-1.926h-7.052Z" transform="translate(-116.657 -32.49)"/></g></g></g></svg>